<?xml version="1.0" encoding="UTF-8"?><svg id="logo-and-name-h" xmlns="http://www.w3.org/2000/svg" viewBox="0 0 899.78 171"><defs><style>.cls-1{fill:#000000;}</style></defs><g id="_20230202-pull_request"><g><path class="cls-1" d="m171,44.69L114.39,0,0,22.67v103.62l56.63,44.71,114.37-22.67V44.69Zm-67.93-28.32v29.95l17.31-3.43v-18.79l25.01,19.74-83.47,16.54L25.61,31.72l77.46-15.35ZM17.31,44.53l33.3,26.28v31.37l17.31-3.43v-25.43l85.76-17v70.16l-33.3-26.28v-31.37l-17.31,3.43v25.43l-85.76,17V44.53Zm50.62,110.1v-29.95l-17.31,3.43v18.79l-25.01-19.74,83.47-16.54,36.31,28.66-77.46,15.35Z"/><g><path class="cls-1" d="m254.75,94.16c4.62-3.97,6.96-9.57,6.96-16.65v-8.25c0-8.47-2.18-14.65-6.47-18.38-4.24-3.67-10.88-5.54-19.76-5.54h-28.54v103.96h30.28c9.08,0,15.74-1.87,19.78-5.56h0c4.08-3.72,6.15-9.99,6.15-18.64v-13.02c0-8.09-2.82-14.12-8.4-17.93Zm-32.54,7.55h16.46c2.84,0,5.05.8,6.73,2.44,1.67,1.63,2.49,3.8,2.49,6.64v15.77c0,3.27-.74,5.65-2.2,7.07-1.47,1.43-3.88,2.15-7.17,2.15h-16.31v-34.07Zm24.23-22.75c0,2.83-.86,5.02-2.62,6.7-1.78,1.7-3.94,2.52-6.6,2.52h-15.01v-29.3h15.01c3.29,0,5.67.7,7.1,2.08,1.41,1.37,2.13,3.73,2.13,7v11Z"/><path class="cls-1" d="m312.61,135.1c-.46-.4-.7-1.18-.7-2.32V45.35h-36.25v13.53h21.27v74.62c0,5.38,1.38,9.4,4.11,11.97h0c2.7,2.54,5.91,3.84,9.53,3.84h25.65v-13.53h-20.58c-1.96,0-2.73-.43-3.03-.68Z"/><path class="cls-1" d="m379.16,74.29h-4.77c-8.7,0-15.26,1.97-19.5,5.85-4.27,3.91-6.44,10.19-6.44,18.64v26.04c0,8.46,2.17,14.73,6.44,18.64,4.24,3.88,10.8,5.85,19.5,5.85h4.77c8.7,0,15.26-1.97,19.5-5.85,4.27-3.91,6.44-10.18,6.44-18.64v-26.04c0-8.45-2.17-14.72-6.44-18.64-4.24-3.88-10.8-5.85-19.5-5.85Zm-15.73,21.6c0-2.61.75-4.56,2.3-5.95,1.57-1.41,4-2.12,7.21-2.12h7.67c3.21,0,5.64.71,7.21,2.12,1.55,1.39,2.3,3.34,2.3,5.95v31.83c0,2.61-.75,4.56-2.3,5.95-1.57,1.41-3.99,2.12-7.21,2.12h-7.67c-3.22,0-5.64-.71-7.21-2.12-1.55-1.39-2.3-3.33-2.3-5.95v-31.83Z"/><path class="cls-1" d="m431.13,80.14c-4.27,3.91-6.44,10.19-6.44,18.64v26.04c0,8.55,2.14,14.85,6.37,18.71,4.19,3.83,10.77,5.78,19.57,5.78h20v-13.53h-21.45c-3.22,0-5.64-.71-7.21-2.12-1.55-1.39-2.3-3.33-2.3-5.95v-31.83c0-2.62.75-4.56,2.3-5.95,1.57-1.41,4-2.12,7.21-2.12h21.45v-13.53h-20c-8.7,0-15.26,1.97-19.5,5.85Z"/><polygon class="cls-1" points="546.93 74.29 527.87 74.29 507.1 97.84 507.1 45.35 492.12 45.35 492.12 149.31 507.1 149.31 507.1 117.51 509.32 114.94 530.03 149.31 548.39 149.31 520.44 104.27 546.93 74.29"/><path class="cls-1" d="m592.28,88.61h-4.34c-2.74,0-4.88-.84-6.57-2.56-1.69-1.73-2.51-3.86-2.51-6.51v-11c0-2.63.95-4.83,2.91-6.7,1.98-1.89,4.52-2.81,7.76-2.81h23.48v-13.68h-22.03c-8.7,0-15.5,2.19-20.22,6.5-4.75,4.35-7.16,10.89-7.16,19.44v5.5c0,8.33,2.22,14.81,6.61,19.25,4.39,4.44,10.4,6.69,17.88,6.69h4.34c2.6,0,4.46.72,5.7,2.2,1.3,1.55,1.93,3.57,1.93,6.16v15.05c0,2.63-.95,4.83-2.91,6.7-1.98,1.89-4.52,2.81-7.76,2.81h-23.33v13.68h21.89c8.7,0,15.5-2.19,20.22-6.5,4.75-4.34,7.16-10.88,7.16-19.44v-9.55c0-8.32-2.05-14.67-6.09-18.87-4.06-4.21-9.76-6.34-16.95-6.34Z"/><path class="cls-1" d="m672.4,129.53c-.18,1.61-.88,3.03-2.15,4.35-1.23,1.27-3.22,1.91-5.91,1.91h-7.81c-2.55,0-4.49-.7-5.93-2.14-1.44-1.44-2.14-3.38-2.14-5.93v-53.43h-14.98v50.53c0,8.45,2.06,14.71,6.13,18.62,4.05,3.9,10.23,5.87,18.36,5.87h4.92c3.84,0,7.28-.77,10.24-2.3v2.3h14.25v-75.02h-14.98v55.24Z"/><rect class="cls-1" x="723.04" y="45.35" width="16.42" height="15.7"/><polygon class="cls-1" points="738.74 74.29 702.49 74.29 702.49 87.82 723.76 87.82 723.76 149.31 760.15 149.31 760.15 135.78 738.74 135.78 738.74 74.29"/><path class="cls-1" d="m806.02,56.93h-14.98v17.36h-13.75v13.53h13.75v42.79c0,5.5,1.42,10.02,4.21,13.44,2.86,3.5,7,5.27,12.32,5.27h19.57v-13.53h-15.95c-1.89,0-3.26-.34-4.07-1-.73-.6-1.1-1.76-1.1-3.45v-43.51h21.12v-13.53h-21.12v-17.36Z"/><path class="cls-1" d="m899.78,118.2v-20.15c0-7.64-1.9-13.57-5.64-17.62-3.77-4.08-9.33-6.15-16.54-6.15h-6.8c-8.63,0-14.93,1.93-18.74,5.75-3.81,3.81-5.75,10.12-5.75,18.74v26.04c0,8.55,2.14,14.85,6.37,18.71,4.19,3.83,10.77,5.78,19.57,5.78h22.9v-13.53h-24.35c-3.22,0-5.64-.71-7.21-2.12-1.55-1.39-2.3-3.33-2.3-5.95v-9.51h38.49Zm-30.42-30.38h8.39c2.16,0,3.88.68,5.27,2.07,1.39,1.39,2.07,3.12,2.07,5.28v9.51h-23.8v-8.79c0-2.74.59-4.8,1.76-6.13,1.13-1.28,3.24-1.93,6.3-1.93Z"/></g></g></g></svg>
