<?xml version="1.0" encoding="UTF-8"?><svg id="logo-and-name-v-alt" xmlns="http://www.w3.org/2000/svg" viewBox="0 0 700 879.99"><defs><style>.cls-1{fill:#000000;}</style></defs><g id="_20230202-pull_request"><g><path class="cls-1" d="m700,182.96L468.26,0,0,92.81v424.18l231.82,183.01,468.18-92.8V182.96Zm-278.07-115.95v122.59l70.87-14.05v-76.91l102.36,80.79-341.7,67.72-148.62-117.3,317.1-62.84ZM70.87,182.27l136.33,107.59v128.41l70.87-14.04v-104.12l351.06-69.57v287.19l-136.33-107.6v-128.41l-70.87,14.05v104.12l-351.06,69.57V182.27Zm207.2,450.71v-122.59l-70.87,14.05v76.91l-102.36-80.79,341.7-67.72,148.62,117.31-317.1,62.84Z"/><g><path class="cls-1" d="m51.21,824.52c4.64-4,7-9.62,7-16.75v-8.29c0-8.52-2.19-14.74-6.5-18.48-4.26-3.7-10.95-5.57-19.88-5.57H3.12v104.57h30.45c9.13,0,15.83-1.88,19.9-5.59h0c4.11-3.74,6.19-10.05,6.19-18.75v-13.1c0-8.14-2.84-14.2-8.45-18.03Zm-32.73,7.59h16.55c2.86,0,5.08.8,6.77,2.46,1.68,1.64,2.5,3.83,2.5,6.68v15.86c0,3.29-.74,5.69-2.21,7.11-1.48,1.44-3.9,2.16-7.21,2.16h-16.41v-34.27Zm24.37-22.89c0,2.84-.86,5.05-2.64,6.74-1.79,1.71-3.96,2.54-6.64,2.54h-15.1v-29.47h15.1c3.31,0,5.71.7,7.14,2.09,1.42,1.38,2.14,3.75,2.14,7.04v11.06Z"/><path class="cls-1" d="m109.4,865.7c-.47-.41-.7-1.19-.7-2.33v-87.94h-36.46v13.61h21.39v75.06c0,5.41,1.39,9.46,4.13,12.04h0c2.72,2.56,5.94,3.86,9.58,3.86h25.8v-13.61h-20.7c-1.97,0-2.75-.43-3.04-.69Z"/><path class="cls-1" d="m176.34,804.53h-4.8c-8.75,0-15.35,1.98-19.61,5.88-4.3,3.94-6.48,10.24-6.48,18.75v26.2c0,8.51,2.18,14.82,6.48,18.75,4.26,3.9,10.86,5.88,19.61,5.88h4.8c8.75,0,15.35-1.98,19.61-5.88,4.3-3.94,6.48-10.24,6.48-18.75v-26.2c0-8.5-2.18-14.81-6.48-18.75-4.27-3.9-10.86-5.88-19.61-5.88Zm-15.83,21.72c0-2.63.76-4.59,2.32-5.98,1.58-1.41,4.02-2.13,7.25-2.13h7.71c3.23,0,5.67.72,7.25,2.13,1.56,1.4,2.32,3.36,2.32,5.98v32.02c0,2.63-.76,4.59-2.32,5.98-1.58,1.41-4.02,2.13-7.25,2.13h-7.71c-3.23,0-5.67-.72-7.25-2.13-1.56-1.39-2.32-3.35-2.32-5.98v-32.02Z"/><path class="cls-1" d="m228.62,810.41c-4.3,3.94-6.48,10.24-6.48,18.75v26.2c0,8.6,2.15,14.94,6.41,18.82,4.22,3.85,10.84,5.81,19.68,5.81h20.12v-13.61h-21.58c-3.23,0-5.67-.72-7.25-2.13-1.56-1.39-2.32-3.35-2.32-5.98v-32.02c0-2.63.76-4.59,2.32-5.98,1.58-1.41,4.02-2.13,7.25-2.13h21.58v-13.61h-20.12c-8.75,0-15.35,1.98-19.61,5.88Z"/><polygon class="cls-1" points="345.09 804.53 325.92 804.53 305.02 828.22 305.02 775.42 289.96 775.42 289.96 879.99 305.02 879.99 305.02 848 307.26 845.42 328.09 879.99 346.56 879.99 318.45 834.69 345.09 804.53"/><path class="cls-1" d="m390.71,818.94h-4.37c-2.75,0-4.91-.84-6.6-2.58-1.7-1.74-2.53-3.88-2.53-6.55v-11.06c0-2.65.96-4.85,2.93-6.74,1.99-1.9,4.54-2.83,7.8-2.83h23.61v-13.76h-22.16c-8.75,0-15.59,2.2-20.34,6.54-4.78,4.37-7.21,10.95-7.21,19.55v5.53c0,8.38,2.24,14.9,6.65,19.36,4.41,4.47,10.46,6.73,17.99,6.73h4.37c2.61,0,4.49.72,5.73,2.21,1.31,1.56,1.94,3.59,1.94,6.19v15.13c0,2.65-.96,4.85-2.93,6.74-1.99,1.9-4.54,2.83-7.8,2.83h-23.47v13.76h22.01c8.75,0,15.59-2.2,20.34-6.54,4.78-4.37,7.21-10.95,7.21-19.55v-9.61c0-8.37-2.06-14.76-6.13-18.98-4.08-4.23-9.82-6.38-17.05-6.38Z"/><path class="cls-1" d="m471.29,860.09c-.18,1.62-.89,3.05-2.17,4.37-1.23,1.27-3.23,1.92-5.95,1.92h-7.86c-2.56,0-4.51-.7-5.96-2.15-1.45-1.45-2.15-3.4-2.15-5.96v-53.74h-15.07v50.83c0,8.49,2.07,14.8,6.16,18.73,4.07,3.92,10.29,5.91,18.47,5.91h4.95c3.87,0,7.32-.78,10.3-2.31v2.31h14.34v-75.46h-15.07v55.56Z"/><rect class="cls-1" x="522.23" y="775.42" width="16.52" height="15.79"/><polygon class="cls-1" points="538.02 804.53 501.56 804.53 501.56 818.14 522.96 818.14 522.96 879.99 559.56 879.99 559.56 866.38 538.02 866.38 538.02 804.53"/><path class="cls-1" d="m605.69,787.07h-15.07v17.46h-13.83v13.61h13.83v43.04c0,5.53,1.42,10.08,4.23,13.51,2.88,3.52,7.05,5.3,12.39,5.3h19.69v-13.61h-16.05c-1.9,0-3.28-.34-4.1-1.01-.73-.6-1.11-1.77-1.11-3.47v-43.77h21.25v-13.61h-21.25v-17.46Z"/><path class="cls-1" d="m700,848.7v-20.27c0-7.69-1.91-13.65-5.67-17.72-3.79-4.1-9.39-6.18-16.64-6.18h-6.84c-8.68,0-15.02,1.94-18.85,5.78-3.84,3.83-5.78,10.18-5.78,18.85v26.2c0,8.6,2.15,14.94,6.41,18.82,4.22,3.85,10.84,5.81,19.68,5.81h23.03v-13.61h-24.49c-3.23,0-5.67-.72-7.25-2.13-1.56-1.39-2.32-3.35-2.32-5.98v-9.57h38.71Zm-30.6-30.56h8.44c2.17,0,3.9.68,5.3,2.08,1.4,1.4,2.08,3.14,2.08,5.31v9.57h-23.94v-8.84c0-2.75.6-4.83,1.78-6.17,1.13-1.29,3.26-1.94,6.34-1.94Z"/></g></g></g></svg>
